# xmcd
#
# Track frame offsets:
# 150
# 26361
# 54116
#
# Disc length: 1065 seconds
#
# Revision: 1
# Processed by: cddbd v1.5.2PL0 Copyright (c) Steve Scherf et al.
# Submitted via: CedeCatalogueitor 2.6.0.6 http://personales.ya.com/cdcatalogueitor
#
DISCID=15042703
DTITLE=The Quemists - Drop Audio Ft ID
DYEAR=1900
DGENRE=
TTITLE0=Drop Audio Ft. ID (Clean Audio)
TTITLE1=Drop Audio Ft. ID
TTITLE2=Stompbox (spor Remix)
EXTD=
EXTT0=
EXTT1=
EXTT2=
PLAYORDER=
